<svg xmlns="http://www.w3.org/2000/svg" width="1040" height="520" viewBox="0 0 1040 520">
  <rect width="1040" height="520" fill="#ffffff"/>
  <style>
    .title { font: 700 24px Arial, sans-serif; fill: #111827; }
    .label { font: 700 16px Arial, sans-serif; fill: #111827; }
    .small { font: 13px Arial, sans-serif; fill: #374151; }
    .partial { fill: #fef3c7; stroke: #f59e0b; stroke-width: 1.5; rx: 8; }
    .no { fill: #fee2e2; stroke: #ef4444; stroke-width: 1.5; rx: 8; }
    .yes { fill: #dcfce7; stroke: #22c55e; stroke-width: 1.5; rx: 8; }
    .arrow { stroke: #6b7280; stroke-width: 2; marker-end: url(#arrow); }
  </style>
  <defs>
    <marker id="arrow" markerWidth="10" markerHeight="10" refX="8" refY="3" orient="auto">
      <path d="M0,0 L0,6 L9,3 z" fill="#6b7280"/>
    </marker>
  </defs>
  <text x="40" y="45" class="title">T013 Model Semantics Repair Status</text>

  <rect x="55" y="85" width="260" height="100" class="partial"/>
  <text x="75" y="118" class="label">ALE ring motion</text>
  <text x="75" y="146" class="small">PARTIAL: dx and measured motion</text>
  <text x="75" y="166" class="small">are diagnostic, not real Hmax proof</text>

  <rect x="390" y="85" width="260" height="100" class="partial"/>
  <text x="410" y="118" class="label">Contactline semantics</text>
  <text x="410" y="146" class="small">PARTIAL/UNKNOWN: settings exist,</text>
  <text x="410" y="166" class="small">physical acceptance not established</text>

  <rect x="725" y="85" width="260" height="100" class="partial"/>
  <text x="745" y="118" class="label">Interface/ROI extraction</text>
  <text x="745" y="146" class="small">PARTIAL: diagnostic extraction passes,</text>
  <text x="745" y="166" class="small">physical height validity not complete</text>

  <rect x="220" y="285" width="260" height="100" class="no"/>
  <text x="240" y="318" class="label">Real Hmax output</text>
  <text x="240" y="346" class="small">NO: definition and validation</text>
  <text x="240" y="366" class="small">criteria are not yet passed</text>

  <rect x="560" y="285" width="260" height="100" class="yes"/>
  <text x="580" y="318" class="label">Next allowed step</text>
  <text x="580" y="346" class="small">YES: bounded no-Stage6</text>
  <text x="580" y="366" class="small">acceptance precheck only</text>

  <line x1="315" y1="135" x2="390" y2="135" class="arrow"/>
  <line x1="650" y1="135" x2="725" y2="135" class="arrow"/>
  <line x1="520" y1="185" x2="390" y2="285" class="arrow"/>
  <line x1="520" y1="185" x2="650" y2="285" class="arrow"/>
</svg>
