<svg xmlns="http://www.w3.org/2000/svg" width="1080" height="520" viewBox="0 0 1080 520">
  <rect width="1080" height="520" fill="#ffffff"/>
  <style>
    .title { font: 700 24px Arial, sans-serif; fill: #111827; }
    .label { font: 700 16px Arial, sans-serif; fill: #111827; }
    .small { font: 13px Arial, sans-serif; fill: #374151; }
    .pass { fill: #dcfce7; stroke: #22c55e; stroke-width: 1.5; rx: 8; }
    .partial { fill: #fef3c7; stroke: #f59e0b; stroke-width: 1.5; rx: 8; }
    .fail { fill: #fee2e2; stroke: #ef4444; stroke-width: 1.5; rx: 8; }
    .arrow { stroke: #6b7280; stroke-width: 2; marker-end: url(#arrow); }
  </style>
  <defs>
    <marker id="arrow" markerWidth="10" markerHeight="10" refX="8" refY="3" orient="auto">
      <path d="M0,0 L0,6 L9,3 z" fill="#6b7280"/>
    </marker>
  </defs>
  <text x="40" y="45" class="title">T014 Bounded No-Stage6 Acceptance Precheck</text>

  <rect x="50" y="90" width="220" height="88" class="partial"/>
  <text x="70" y="122" class="label">Ring motion</text>
  <text x="70" y="150" class="small">PARTIAL</text>

  <rect x="310" y="90" width="220" height="88" class="partial"/>
  <text x="330" y="122" class="label">Non-double-counting</text>
  <text x="330" y="150" class="small">PARTIAL</text>

  <rect x="570" y="90" width="220" height="88" class="fail"/>
  <text x="590" y="122" class="label">Contactline</text>
  <text x="590" y="150" class="small">FAIL</text>

  <rect x="830" y="90" width="220" height="88" class="partial"/>
  <text x="850" y="122" class="label">Interface extraction</text>
  <text x="850" y="150" class="small">PARTIAL</text>

  <rect x="195" y="270" width="260" height="96" class="fail"/>
  <text x="215" y="302" class="label">Real Hmax executable now</text>
  <text x="215" y="330" class="small">NO: sensitivity and physical</text>
  <text x="215" y="350" class="small">contactline validity missing</text>

  <rect x="625" y="270" width="260" height="96" class="fail"/>
  <text x="645" y="302" class="label">Bounded Stage6 candidate</text>
  <text x="645" y="330" class="small">NO: precheck did not pass</text>

  <line x1="270" y1="134" x2="310" y2="134" class="arrow"/>
  <line x1="530" y1="134" x2="570" y2="134" class="arrow"/>
  <line x1="790" y1="134" x2="830" y2="134" class="arrow"/>
  <line x1="540" y1="178" x2="325" y2="270" class="arrow"/>
  <line x1="540" y1="178" x2="755" y2="270" class="arrow"/>
</svg>
